Coordinates
version=1
nRows=17
nColumns=40
inDegrees=yes

Units are S.I. units (second, meters, Newtons, ...)
If the header above contains a line with 'inDegrees', this indicates whether rotational values are in degrees (yes) or radians (no).

endheader
time	pelvis_tilt	pelvis_list	pelvis_rotation	pelvis_tx	pelvis_ty	pelvis_tz	hip_flexion_r	hip_adduction_r	hip_rotation_r	knee_angle_r	knee_angle_r_beta	ankle_angle_r	subtalar_angle_r	mtp_angle_r	hip_flexion_l	hip_adduction_l	hip_rotation_l	knee_angle_l	knee_angle_l_beta	ankle_angle_l	subtalar_angle_l	mtp_angle_l	lumbar_extension	lumbar_bending	lumbar_rotation	arm_flex_r	arm_add_r	arm_rot_r	elbow_flex_r	pro_sup_r	wrist_flex_r	wrist_dev_r	arm_flex_l	arm_add_l	arm_rot_l	elbow_flex_l	pro_sup_l	wrist_flex_l	wrist_dev_l
      5.33500000	    -48.04892923	     -6.50586097	     11.76261058	      0.06702690	      0.65144232	     -1.20255768	    100.19951696	    -47.33506728	     -8.27702238	     69.41449794	      1.21151154	      7.50590715	    -13.17310596	      0.00000000	    107.21450282	    -19.63765434	     -4.88989240	     64.97647665	      1.13405345	      3.72702446	      0.57493021	      0.00000000	      0.00000000	      0.00000000	      0.00000000	     44.99992134	    -14.99999999	     44.99992134	     75.00017585	     45.00000026	      0.00000000	      0.00000000	     44.99992134	    -14.99999999	     44.99992134	     75.00017585	     45.00000026	      0.00000000	      0.00000000
      5.34000000	    -47.77743202	     -6.49590182	     11.71036243	      0.06793171	      0.65285859	     -1.20260808	     99.56651279	    -47.27946518	     -8.62784677	     69.21785627	      1.20807949	      7.47280016	    -13.12599504	      0.00000000	    106.79947392	    -19.76251358	     -4.91121019	     64.89164499	      1.13257286	      3.99929695	      0.95392707	      0.00000000	      0.00000000	      0.00000000	      0.00000000	     44.99992141	    -14.99999999	     44.99992141	     75.00017585	     45.00000026	      0.00000000	      0.00000000	     44.99992141	    -14.99999999	     44.99992141	     75.00017585	     45.00000026	      0.00000000	      0.00000000
      5.34500000	    -47.85252522	     -6.38865715	     11.75420323	      0.06819347	      0.65337645	     -1.20288443	     99.63528822	    -47.32974357	     -8.51142701	     69.08553022	      1.20576997	      7.48923659	    -13.01106523	      0.00000000	    106.69343957	    -19.68658293	     -5.06481173	     64.78112123	      1.13064386	      3.81780963	      0.69129395	      0.00000000	      0.00000000	      0.00000000	      0.00000000	     44.99992147	    -14.99999999	     44.99992147	     75.00017585	     45.00000026	      0.00000000	      0.00000000	     44.99992147	    -14.99999999	     44.99992147	     75.00017585	     45.00000026	      0.00000000	      0.00000000
      5.35000000	    -47.58539380	     -6.41159570	     11.65818489	      0.06912974	      0.65469466	     -1.20284609	     98.97200231	    -47.22416030	     -8.90557175	     68.89473479	      1.20243996	      7.46568944	    -12.97619135	      0.00000000	    106.33487134	    -19.86931064	     -5.05076797	     64.73780074	      1.12988777	      4.08003626	      1.13151845	      0.00000000	      0.00000000	      0.00000000	      0.00000000	     44.99992153	    -14.99999999	     44.99992153	     75.00017585	     45.00000026	      0.00000000	      0.00000000	     44.99992153	    -14.99999999	     44.99992153	     75.00017585	     45.00000026	      0.00000000	      0.00000000
      5.35500000	    -47.66674183	     -6.31147548	     11.69935413	      0.06935202	      0.65510329	     -1.20306171	     99.08119859	    -47.27509035	     -8.78314155	     68.81191679	      1.20099451	      7.46732729	    -12.85710455	      0.00000000	    106.25086823	    -19.79466670	     -5.19184333	     64.62660491	      1.12794704	      3.85779720	      0.81101550	      0.00000000	      0.00000000	      0.00000000	      0.00000000	     44.99992158	    -14.99999999	     44.99992158	     75.00017585	     45.00000026	      0.00000000	      0.00000000	     44.99992158	    -14.99999999	     44.99992158	     75.00017585	     45.00000026	      0.00000000	      0.00000000
      5.36000000	    -47.64140335	     -6.08546596	     11.67932502	      0.06981346	      0.65579727	     -1.20302570	     99.13164735	    -47.22313761	     -8.53202935	     68.69273635	      1.19891442	      7.40442076	    -12.80186381	      0.00000000	    105.96696679	    -19.87225417	     -5.46806770	     64.53638886	      1.12637247	      3.90814524	      0.85771823	      0.00000000	      0.00000000	      0.00000000	      0.00000000	     44.99992165	    -14.99999999	     44.99992165	     75.00017585	     45.00000026	      0.00000000	      0.00000000	     44.99992165	    -14.99999999	     44.99992165	     75.00017585	     45.00000026	      0.00000000	      0.00000000
      5.36500000	    -47.52316575	     -6.12866668	     11.60182016	      0.07047534	      0.65667212	     -1.20305579	     98.71477145	    -47.15337838	     -8.83778498	     68.55236753	      1.19646452	      7.42170536	    -12.74201027	      0.00000000	    105.79648085	    -19.97766679	     -5.43847818	     64.49186496	      1.12559538	      3.94048568	      0.94553644	      0.00000000	      0.00000000	      0.00000000	      0.00000000	     44.99992171	    -14.99999999	     44.99992171	     75.00017585	     45.00000026	      0.00000000	      0.00000000	     44.99992171	    -14.99999999	     44.99992171	     75.00017585	     45.00000026	      0.00000000	      0.00000000
      5.37000000	    -47.43496973	     -6.07988306	     11.61016920	      0.07102775	      0.65748007	     -1.20319933	     98.46714459	    -47.15844851	     -8.92079110	     68.41506179	      1.19406809	      7.43605737	    -12.65978596	      0.00000000	    105.57137983	    -19.98573537	     -5.50941706	     64.41519251	      1.12425720	      3.96671520	      0.98868127	      0.00000000	      0.00000000	      0.00000000	      0.00000000	     44.99992175	    -14.99999999	     44.99992175	     75.00017585	     45.00000026	      0.00000000	      0.00000000	     44.99992175	    -14.99999999	     44.99992175	     75.00017585	     45.00000026	      0.00000000	      0.00000000
      5.37500000	    -46.98233065	     -5.89646890	     11.45301309	      0.07221208	      0.65914485	     -1.20265126	     97.76309014	    -46.90392742	     -9.05167716	     68.25213141	      1.19122441	      7.52960087	    -12.78348969	      0.00000000	    104.89855314	    -20.35822682	     -5.72156103	     64.36988901	      1.12346650	      4.18481562	      1.46968432	      0.00000000	      0.00000000	      0.00000000	      0.00000000	     44.99992179	    -14.99999999	     44.99992179	     75.00017585	     45.00000026	      0.00000000	      0.00000000	     44.99992179	    -14.99999999	     44.99992179	     75.00017585	     45.00000026	      0.00000000	      0.00000000
      5.38000000	    -47.27524612	     -5.93592843	     11.56541672	      0.07215750	      0.65897021	     -1.20326801	     98.07270470	    -47.10089548	     -9.01754648	     68.18647034	      1.19007841	      7.40365964	    -12.54777704	      0.00000000	    105.12771369	    -20.09568148	     -5.70452405	     64.28309131	      1.12195160	      4.03832814	      1.09629217	      0.00000000	      0.00000000	      0.00000000	      0.00000000	     44.99992183	    -14.99999999	     44.99992183	     75.00017585	     45.00000026	      0.00000000	      0.00000000	     44.99992183	    -14.99999999	     44.99992183	     75.00017585	     45.00000026	      0.00000000	      0.00000000
      5.38500000	    -47.19671124	     -5.87510658	     11.56345456	      0.07273380	      0.65970292	     -1.20333770	     97.86988627	    -47.09797987	     -9.07759584	     68.08135808	      1.18824386	      7.41611688	    -12.48279232	      0.00000000	    104.90993984	    -20.12252412	     -5.79059734	     64.20940092	      1.12066546	      4.06146092	      1.13512533	      0.00000000	      0.00000000	      0.00000000	      0.00000000	     44.99992187	    -14.99999999	     44.99992187	     75.00017585	     45.00000026	      0.00000000	      0.00000000	     44.99992187	    -14.99999999	     44.99992187	     75.00017585	     45.00000026	      0.00000000	      0.00000000
      5.39000000	    -47.08091968	     -5.83706204	     11.52239406	      0.07337256	      0.66053887	     -1.20333397	     97.57162376	    -47.04563738	     -9.20180240	     67.95405415	      1.18602198	      7.39292177	    -12.42812466	      0.00000000	    104.67492522	    -20.20003123	     -5.83917044	     64.15441177	      1.11970572	      4.14293309	      1.25335731	      0.00000000	      0.00000000	      0.00000000	      0.00000000	     44.99992191	    -14.99999999	     44.99992191	     75.00017585	     45.00000026	      0.00000000	      0.00000000	     44.99992191	    -14.99999999	     44.99992191	     75.00017585	     45.00000026	      0.00000000	      0.00000000
      5.39500000	    -47.02513440	     -5.75612682	     11.54032665	      0.07392194	      0.66125328	     -1.20344295	     97.42834766	    -47.06165718	     -9.21191413	     67.85070678	      1.18421823	      7.37912076	    -12.36998246	      0.00000000	    104.45727838	    -20.19504682	     -5.94868921	     64.07239883	      1.11827432	      4.17775195	      1.27294024	      0.00000000	      0.00000000	      0.00000000	      0.00000000	     44.99992194	    -14.99999999	     44.99992194	     75.00017585	     45.00000026	      0.00000000	      0.00000000	     44.99992194	    -14.99999999	     44.99992194	     75.00017585	     45.00000026	      0.00000000	      0.00000000
      5.40000000	    -46.92340534	     -5.70297727	     11.50193809	      0.07458967	      0.66206918	     -1.20338848	     97.16249871	    -46.99520332	     -9.28872011	     67.73103026	      1.18212948	      7.38993279	    -12.33361041	      0.00000000	    104.22073312	    -20.27570383	     -6.02729972	     64.00169556	      1.11704031	      4.20914793	      1.34398763	      0.00000000	      0.00000000	      0.00000000	      0.00000000	     44.99992198	    -14.99999999	     44.99992198	     75.00017585	     45.00000026	      0.00000000	      0.00000000	     44.99992198	    -14.99999999	     44.99992198	     75.00017585	     45.00000026	      0.00000000	      0.00000000
      5.40500000	    -46.83525172	     -5.65547155	     11.48310351	      0.07520814	      0.66287096	     -1.20340236	     96.91609812	    -46.95462601	     -9.36912004	     67.60728412	      1.17996971	      7.40804363	    -12.30667824	      0.00000000	    103.99670091	    -20.31480544	     -6.08306142	     63.92824954	      1.11575844	      4.24884563	      1.40921525	      0.00000000	      0.00000000	      0.00000000	      0.00000000	     44.99992202	    -14.99999999	     44.99992202	     75.00017585	     45.00000026	      0.00000000	      0.00000000	     44.99992202	    -14.99999999	     44.99992202	     75.00017585	     45.00000026	      0.00000000	      0.00000000
      5.41000000	    -46.52463449	     -5.51128338	     11.34486864	      0.07624898	      0.66430933	     -1.20296695	     96.38302622	    -46.73408630	     -9.46776257	     67.43664353	      1.17699147	      7.39771535	    -12.37366764	      0.00000000	    103.46745154	    -20.59721190	     -6.25779013	     63.85635906	      1.11450371	      4.47066617	      1.77760076	      0.00000000	      0.00000000	      0.00000000	      0.00000000	     44.99992205	    -14.99999999	     44.99992205	     75.00017585	     45.00000026	      0.00000000	      0.00000000	     44.99992205	    -14.99999999	     44.99992205	     75.00017585	     45.00000026	      0.00000000	      0.00000000
      5.41500000	    -46.65772533	     -5.54349875	     11.46017237	      0.07653101	      0.66456103	     -1.20342968	     96.42472498	    -46.89091612	     -9.51365538	     67.35902385	      1.17563675	      7.40882096	    -12.23069581	      0.00000000	    103.51402838	    -20.38161137	     -6.22802185	     63.75525149	      1.11273905	      4.33741901	      1.53792388	      0.00000000	      0.00000000	      0.00000000	      0.00000000	     44.99992208	    -14.99999999	     44.99992208	     75.00017585	     45.00000026	      0.00000000	      0.00000000	     44.99992208	    -14.99999999	     44.99992208	     75.00017585	     45.00000026	      0.00000000	      0.00000000
